<svg xmlns="http://www.w3.org/2000/svg" width="8.826" height="10.769" viewBox="0 0 8.826 10.769">
  <g id="delete" transform="translate(-8.726 -3)">
    <path id="Path_1504" data-name="Path 1504" d="M17.026,12.439H9.251a.526.526,0,0,1-.525-.525V10.872a.526.526,0,0,1,.525-.525h7.775a.526.526,0,0,1,.525.525v1.042a.526.526,0,0,1-.525.525Zm-7.775-1.78a.213.213,0,0,0-.213.213v1.042a.213.213,0,0,0,.213.213h7.775a.213.213,0,0,0,.213-.213V10.872a.213.213,0,0,0-.213-.213Z" transform="translate(0 -6.2)" fill="#757575"/>
    <path id="Path_1505" data-name="Path 1505" d="M19.365,29.6H14.187a.687.687,0,0,1-.683-.638l-.468-7.038a.156.156,0,0,1,.156-.167h7.168a.156.156,0,0,1,.156.167l-.468,7.038a.687.687,0,0,1-.683.638Zm-6.007-7.53.458,6.871a.373.373,0,0,0,.371.346h5.178a.373.373,0,0,0,.371-.347l.458-6.871Z" transform="translate(-3.637 -15.827)" fill="#757575"/>
    <path id="Path_1506" data-name="Path 1506" d="M22.99,33.637a.41.41,0,0,1-.408-.386l-.262-5.124a.445.445,0,0,1,.89-.042L23.4,33.21a.41.41,0,0,1-.411.427Zm-.225-5.669a.133.133,0,0,0-.133.14l.261,5.125a.1.1,0,0,0,.2-.012L22.9,28.1A.133.133,0,0,0,22.765,27.968Z" transform="translate(-11.472 -20.812)" fill="#757575"/>
    <path id="Path_1507" data-name="Path 1507" d="M34.584,33.627a.412.412,0,0,1-.411-.4L34.137,28.1a.447.447,0,0,1,.894,0h0l-.036,5.125A.412.412,0,0,1,34.584,33.627Zm0-5.669a.136.136,0,0,0-.135.137l.036,5.124a.1.1,0,0,0,.2,0l.036-5.123A.136.136,0,0,0,34.584,27.958Z" transform="translate(-21.445 -20.802)" fill="#757575"/>
    <path id="Path_1508" data-name="Path 1508" d="M45.164,33.639a.412.412,0,0,1-.411-.411v-.016l.191-5.125a.445.445,0,0,1,.89.042l-.261,5.122A.411.411,0,0,1,45.164,33.639Zm.225-5.669a.133.133,0,0,0-.133.129l-.191,5.125a.1.1,0,1,0,.2.011l.261-5.121h0a.133.133,0,0,0-.133-.14Z" transform="translate(-30.404 -20.814)" fill="#757575"/>
    <path id="Path_1509" data-name="Path 1509" d="M29.062,4.459H25.842a.156.156,0,0,1-.156-.156V3.734A.734.734,0,0,1,26.419,3h2.066a.734.734,0,0,1,.734.734V4.3a.156.156,0,0,1-.157.155ZM26,4.147h2.907V3.734a.421.421,0,0,0-.421-.421H26.419A.421.421,0,0,0,26,3.734Z" transform="translate(-14.313)" fill="#757575"/>
  </g>
</svg>
