<svg xmlns="http://www.w3.org/2000/svg" width="54.775" height="54.775" viewBox="0 0 54.775 54.775">
  <path id="headphones" d="M59.522,32.137A27.386,27.386,0,1,0,6.506,41.78a6.567,6.567,0,0,0-1.109,7.3L8.622,55.8a6.551,6.551,0,0,0,8.752,3.078l.682-.327a.8.8,0,0,0,.163-.107A3.2,3.2,0,0,0,22.1,54.012L14.72,38.638a3.2,3.2,0,0,0-4.936-1.079,22.976,22.976,0,0,1,7.4-22.866,2.349,2.349,0,0,0,1.071.27,2.4,2.4,0,0,0,1.394-.45,21.559,21.559,0,0,1,24.974,0,2.369,2.369,0,0,0,2.468.185,22.975,22.975,0,0,1,7.4,22.862,3.2,3.2,0,0,0-4.936,1.079L42.17,54.012a3.195,3.195,0,0,0,3.883,4.432.816.816,0,0,0,.163.106l.682.328A6.561,6.561,0,0,0,55.65,55.8l3.225-6.724a6.567,6.567,0,0,0-1.109-7.3,27.127,27.127,0,0,0,1.756-9.642ZM12.9,57.625A4.911,4.911,0,0,1,10.079,55.1L6.854,48.376a4.946,4.946,0,0,1,2.272-6.571l7.5,15.636a4.909,4.909,0,0,1-3.73.184ZM11.139,38.593a1.575,1.575,0,0,1,.685-.157,1.592,1.592,0,0,1,1.435.9l7.383,15.375a1.589,1.589,0,1,1-2.866,1.375L10.411,40.742l-.013-.029a1.588,1.588,0,0,1,.745-2.12ZM7.522,32.137a24.59,24.59,0,0,0,1.138,7.4,3.181,3.181,0,0,0-.03.707l-.157.075a6.6,6.6,0,0,0-.65.361,25.76,25.76,0,0,1,7.323-27.912l.811.843A24.513,24.513,0,0,0,7.522,32.137ZM45.56,13.195a23.175,23.175,0,0,0-26.85,0,.761.761,0,0,1-1-.084l-1.323-1.377a25.778,25.778,0,0,1,31.487,0L46.557,13.11a.761.761,0,0,1-1,.085Zm2.753.421.81-.843a25.76,25.76,0,0,1,7.325,27.912,6.6,6.6,0,0,0-.65-.361l-.157-.075a3.177,3.177,0,0,0-.03-.707,24.581,24.581,0,0,0-7.3-25.925ZM44.372,56.834a1.591,1.591,0,0,1-.745-2.12L51.008,39.34a1.589,1.589,0,1,1,2.865,1.375l-.013.029L46.493,56.089a1.588,1.588,0,0,1-2.12.745Zm13.044-8.459L54.191,55.1a4.942,4.942,0,0,1-6.546,2.341l7.5-15.636a4.946,4.946,0,0,1,2.274,6.571Z" transform="translate(-4.747 -4.751)" fill="#4dd2e8"/>
</svg>
