<svg xmlns="http://www.w3.org/2000/svg" width="49.267" height="49.267" viewBox="0 0 49.267 49.267">
  <g id="laptop" transform="translate(-4.75 -4.75)">
    <path id="Path_1527" data-name="Path 1527" d="M55.409,10.75H18.061a.728.728,0,0,0-.728.728V34.656a.728.728,0,0,0,.728.728H55.409a.728.728,0,0,0,.728-.728V11.478a.728.728,0,0,0-.728-.728Zm-.728,23.178H18.788V12.205H54.682Z" transform="translate(-7.352 -3.505)" fill="#4dd2e8"/>
    <path id="Path_1528" data-name="Path 1528" d="M54.006,49.423,51.28,33.583V5.478a.728.728,0,0,0-.728-.728H8.214a.728.728,0,0,0-.728.728v28.1L4.76,49.423a.721.721,0,0,0-.01.125v3.742a.728.728,0,0,0,.728.728H53.289a.728.728,0,0,0,.728-.728V49.547A.72.72,0,0,0,54.006,49.423ZM8.828,34.372H49.939L52.426,48.82H6.341ZM8.942,6.205H49.825V32.917H8.942ZM6.205,52.562V50.275H52.562v2.287Z" fill="#4dd2e8"/>
    <path id="Path_1529" data-name="Path 1529" d="M25.395,83.873h2.495a.728.728,0,1,0,0-1.455H25.395a.728.728,0,0,0,0,1.455Z" transform="translate(-11.636 -45.377)" fill="#4dd2e8"/>
    <path id="Path_1530" data-name="Path 1530" d="M39.228,83.873h2.495a.728.728,0,1,0,0-1.455H39.228a.728.728,0,1,0,0,1.455Z" transform="translate(-19.718 -45.377)" fill="#4dd2e8"/>
    <path id="Path_1531" data-name="Path 1531" d="M53.061,83.873h2.495a.728.728,0,1,0,0-1.455H53.061a.728.728,0,1,0,0,1.455Z" transform="translate(-27.8 -45.377)" fill="#4dd2e8"/>
    <path id="Path_1532" data-name="Path 1532" d="M66.895,83.873h2.495a.728.728,0,1,0,0-1.455H66.895a.728.728,0,0,0,0,1.455Z" transform="translate(-35.883 -45.377)" fill="#4dd2e8"/>
    <path id="Path_1533" data-name="Path 1533" d="M80.728,83.873h2.495a.728.728,0,1,0,0-1.455H80.728a.728.728,0,0,0,0,1.455Z" transform="translate(-43.965 -45.377)" fill="#4dd2e8"/>
    <path id="Path_1534" data-name="Path 1534" d="M94.561,83.873h2.495a.728.728,0,1,0,0-1.455H94.561a.728.728,0,0,0,0,1.455Z" transform="translate(-52.046 -45.377)" fill="#4dd2e8"/>
    <path id="Path_1535" data-name="Path 1535" d="M18.478,93.08h2.495a.728.728,0,0,0,0-1.455H18.478a.728.728,0,0,0,0,1.455Z" transform="translate(-7.595 -50.756)" fill="#4dd2e8"/>
    <path id="Path_1536" data-name="Path 1536" d="M34.805,91.625H32.311a.728.728,0,0,0,0,1.455h2.495a.728.728,0,1,0,0-1.455Z" transform="translate(-15.677 -50.756)" fill="#4dd2e8"/>
    <path id="Path_1537" data-name="Path 1537" d="M46.145,93.08h2.495a.728.728,0,0,0,0-1.455H46.145a.728.728,0,0,0,0,1.455Z" transform="translate(-23.76 -50.756)" fill="#4dd2e8"/>
    <path id="Path_1538" data-name="Path 1538" d="M62.472,93.08a.728.728,0,1,0,0-1.455H59.978a.728.728,0,0,0,0,1.455Z" transform="translate(-31.841 -50.756)" fill="#4dd2e8"/>
    <path id="Path_1539" data-name="Path 1539" d="M76.305,91.625H73.811a.728.728,0,0,0,0,1.455h2.495a.728.728,0,0,0,0-1.455Z" transform="translate(-39.923 -50.756)" fill="#4dd2e8"/>
    <path id="Path_1540" data-name="Path 1540" d="M90.139,91.625H87.645a.728.728,0,1,0,0,1.455h2.495a.728.728,0,0,0,0-1.455Z" transform="translate(-48.006 -50.756)" fill="#4dd2e8"/>
    <path id="Path_1541" data-name="Path 1541" d="M100.75,92.353a.728.728,0,0,0,.728.728h2.495a.728.728,0,1,0,0-1.455h-2.495A.728.728,0,0,0,100.75,92.353Z" transform="translate(-56.088 -50.756)" fill="#4dd2e8"/>
    <path id="Path_1542" data-name="Path 1542" d="M18.478,102.287h2.495a.728.728,0,0,0,0-1.455H18.478a.728.728,0,1,0,0,1.455Z" transform="translate(-7.595 -56.136)" fill="#4dd2e8"/>
    <path id="Path_1543" data-name="Path 1543" d="M34.805,100.832H32.311a.728.728,0,0,0,0,1.455h2.495a.728.728,0,1,0,0-1.455Z" transform="translate(-15.677 -56.136)" fill="#4dd2e8"/>
    <path id="Path_1544" data-name="Path 1544" d="M60.141,100.832h-14a.728.728,0,1,0,0,1.455h14a.728.728,0,1,0,0-1.455Z" transform="translate(-23.76 -56.136)" fill="#4dd2e8"/>
    <path id="Path_1545" data-name="Path 1545" d="M90.139,100.832H87.645a.728.728,0,1,0,0,1.455h2.495a.728.728,0,1,0,0-1.455Z" transform="translate(-48.006 -56.136)" fill="#4dd2e8"/>
    <path id="Path_1546" data-name="Path 1546" d="M103.972,100.832h-2.495a.728.728,0,0,0,0,1.455h2.495a.728.728,0,1,0,0-1.455Z" transform="translate(-56.088 -56.136)" fill="#4dd2e8"/>
  </g>
</svg>
