<svg xmlns="http://www.w3.org/2000/svg" width="16.711" height="10.901" viewBox="0 0 16.711 10.901">
  <g id="message_1_" data-name="message (1)" transform="translate(0 -89.012)">
    <g id="Group_168" data-name="Group 168" transform="translate(10.827 89.562)">
      <g id="Group_167" data-name="Group 167">
        <path id="Path_35" data-name="Path 35" d="M337.583,105.876l-5.874,4.892,5.884,3.916v-8.7A.66.66,0,0,0,337.583,105.876Z" transform="translate(-331.709 -105.876)" fill="#4dd2e8"/>
      </g>
    </g>
    <g id="Group_170" data-name="Group 170" transform="translate(0 94.895)">
      <g id="Group_169" data-name="Group 169">
        <path id="Path_36" data-name="Path 36" d="M10.3,269.264l-.741.617a1.876,1.876,0,0,1-2.4,0l-.741-.617L0,273.533v.088a.661.661,0,0,0,.661.661H16.05a.661.661,0,0,0,.661-.661v-.088Z" transform="translate(0 -269.264)" fill="#4dd2e8"/>
      </g>
    </g>
    <g id="Group_172" data-name="Group 172" transform="translate(0.56 89.012)">
      <g id="Group_171" data-name="Group 171">
        <path id="Path_37" data-name="Path 37" d="M32.64,89.012H17.246a.1.1,0,0,0-.062.179l6.047,5.036,0,0,.932.776a1.216,1.216,0,0,0,1.556,0L32.7,89.191A.1.1,0,0,0,32.64,89.012Z" transform="translate(-17.147 -89.012)" fill="#4dd2e8"/>
      </g>
    </g>
    <g id="Group_174" data-name="Group 174" transform="translate(0 89.562)">
      <g id="Group_173" data-name="Group 173">
        <path id="Path_38" data-name="Path 38" d="M.01,105.876a.66.66,0,0,0-.01.11v8.7l5.884-3.916Z" transform="translate(0 -105.876)" fill="#4dd2e8"/>
      </g>
    </g>
  </g>
</svg>
