<svg xmlns="http://www.w3.org/2000/svg" width="33.956" height="57.974" viewBox="0 0 33.956 57.974">
  <g id="mobile-phone_1_" data-name="mobile-phone (1)" transform="translate(-16.5 -2)">
    <path id="Path_1522" data-name="Path 1522" d="M47.143,59.974H19.813A3.313,3.313,0,0,1,16.5,56.661V5.313A3.313,3.313,0,0,1,19.813,2h27.33a3.313,3.313,0,0,1,3.313,3.313V56.661A3.313,3.313,0,0,1,47.143,59.974ZM19.813,3.656a1.656,1.656,0,0,0-1.656,1.656V56.661a1.656,1.656,0,0,0,1.656,1.656h27.33A1.656,1.656,0,0,0,48.8,56.661V5.313a1.656,1.656,0,0,0-1.656-1.656Z" transform="translate(0 0)" fill="#4dd2e8"/>
    <path id="Path_1523" data-name="Path 1523" d="M49.628,12.656h-32.3a.828.828,0,0,1,0-1.656h32.3a.828.828,0,1,1,0,1.656Z" transform="translate(0 -1.546)" fill="#4dd2e8"/>
    <path id="Path_1524" data-name="Path 1524" d="M49.628,58.656h-32.3a.828.828,0,1,1,0-1.656h32.3a.828.828,0,1,1,0,1.656Z" transform="translate(0 -9.449)" fill="#4dd2e8"/>
    <path id="Path_1525" data-name="Path 1525" d="M36.366,66.921a3.054,3.054,0,1,1,3.054-3.054A3.054,3.054,0,0,1,36.366,66.921Zm0-4.452a1.4,1.4,0,1,0,1.4,1.4,1.4,1.4,0,0,0-1.4-1.4Z" transform="translate(-2.888 -10.104)" fill="#4dd2e8"/>
    <path id="Path_1526" data-name="Path 1526" d="M39.454,8.406H32.828a.828.828,0,1,1,0-1.656h6.626a.828.828,0,1,1,0,1.656Z" transform="translate(-2.663 -0.816)" fill="#4dd2e8"/>
  </g>
</svg>
