<svg xmlns="http://www.w3.org/2000/svg" width="13.893" height="13.955" viewBox="0 0 13.893 13.955">
  <g id="phone-call" transform="translate(-0.345 -14.459)">
    <g id="Group_3800" data-name="Group 3800" transform="translate(0.344 0)">
      <path id="Path_14997" data-name="Path 14997" d="M12.039,35.724a1.457,1.457,0,0,0-1.057-.485,1.506,1.506,0,0,0-1.069.481l-.988.985c-.081-.044-.163-.084-.241-.125-.113-.056-.219-.109-.309-.166A10.736,10.736,0,0,1,5.8,34.071a6.334,6.334,0,0,1-.844-1.332c.256-.234.494-.478.725-.713.088-.088.175-.178.263-.266a1.434,1.434,0,0,0,0-2.163l-.853-.853c-.1-.1-.2-.2-.291-.3-.188-.194-.385-.394-.588-.581a1.48,1.48,0,0,0-1.047-.46,1.531,1.531,0,0,0-1.063.46l-.006.006L1.036,28.944A2.287,2.287,0,0,0,.357,30.4a5.48,5.48,0,0,0,.4,2.32,13.46,13.46,0,0,0,2.391,3.989,14.711,14.711,0,0,0,4.9,3.836,7.632,7.632,0,0,0,2.751.813c.066,0,.134.006.2.006a2.356,2.356,0,0,0,1.8-.775c0-.006.009-.009.013-.016A7.107,7.107,0,0,1,13.359,40c.134-.128.272-.263.406-.4a1.559,1.559,0,0,0,.472-1.082,1.5,1.5,0,0,0-.481-1.072Zm1.119,3.292s0,0,0,0c-.122.131-.247.25-.381.381a8.22,8.22,0,0,0-.6.625,1.507,1.507,0,0,1-1.175.5c-.047,0-.1,0-.144,0a6.78,6.78,0,0,1-2.438-.731A13.886,13.886,0,0,1,3.8,36.171a12.691,12.691,0,0,1-2.251-3.748,4.463,4.463,0,0,1-.35-1.957,1.435,1.435,0,0,1,.431-.928L2.7,28.472a.711.711,0,0,1,.475-.222.669.669,0,0,1,.456.219l.009.009c.191.178.372.363.563.56.1.1.2.2.3.3l.853.853a.6.6,0,0,1,0,.969c-.091.091-.178.181-.269.269-.263.269-.513.519-.785.763-.006.006-.013.009-.016.016a.638.638,0,0,0-.163.71l.009.028A6.851,6.851,0,0,0,5.14,34.6l0,0a11.474,11.474,0,0,0,2.776,2.526,4.267,4.267,0,0,0,.385.209c.113.056.219.109.309.166.013.006.025.016.038.022a.678.678,0,0,0,.309.078.668.668,0,0,0,.475-.216L10.5,36.315a.707.707,0,0,1,.472-.234.637.637,0,0,1,.45.228l.006.006,1.722,1.722A.618.618,0,0,1,13.159,39.016Z" transform="translate(-0.344 -12.948)" fill="#f5f5f5"/>
    </g>
  </g>
</svg>
