<svg xmlns="http://www.w3.org/2000/svg" width="14.839" height="20.084" viewBox="0 0 14.839 20.084">
  <g id="pin" transform="translate(-48.08)">
    <g id="Group_3802" data-name="Group 3802" transform="translate(48.08)">
      <g id="Group_3801" data-name="Group 3801" transform="translate(0)">
        <path id="Path_14998" data-name="Path 14998" d="M55.5,0A7.428,7.428,0,0,0,48.08,7.419a8.56,8.56,0,0,0,.629,2.856,11.964,11.964,0,0,0,.858,1.6l5.087,7.708a.968.968,0,0,0,1.691,0l5.087-7.708a11.916,11.916,0,0,0,.858-1.6,8.558,8.558,0,0,0,.629-2.856A7.428,7.428,0,0,0,55.5,0Zm5.986,9.937A10.962,10.962,0,0,1,60.7,11.4l-5.087,7.708c-.1.152-.132.152-.233,0L50.3,11.4a10.968,10.968,0,0,1-.782-1.462,7.77,7.77,0,0,1-.561-2.517,6.546,6.546,0,0,1,13.093,0A7.776,7.776,0,0,1,61.485,9.937Z" transform="translate(-48.08)" fill="#f5f5f5"/>
        <path id="Path_14999" data-name="Path 14999" d="M116.008,64.008a3.928,3.928,0,1,0,3.928,3.928A3.932,3.932,0,0,0,116.008,64.008Zm0,6.983a3.055,3.055,0,1,1,3.055-3.055A3.059,3.059,0,0,1,116.008,70.991Z" transform="translate(-108.589 -60.516)" fill="#f5f5f5"/>
      </g>
    </g>
  </g>
</svg>
