<svg xmlns="http://www.w3.org/2000/svg" width="17.138" height="13.315" viewBox="0 0 17.138 13.315">
  <g id="quotation-marks" transform="translate(0 -39.159)">
    <path id="Path_30" data-name="Path 30" d="M3.53,44.439a3.775,3.775,0,0,1,3.136-2.748.339.339,0,0,0,.239-.09.245.245,0,0,0,.149-.149,1.426,1.426,0,0,0-.538-2.031c-.866-.627-2.24,0-2.927.568C1.857,41.422.1,43.9.185,46.261a9.878,9.878,0,0,0,.209,4.69,2.21,2.21,0,0,0,2.061,1.4c.9.06,2.748.329,3.555-.209s.866-1.583.956-2.479c.09-.986.358-2.838-.478-3.614C5.651,45.305,3.261,46.111,3.53,44.439Z" transform="translate(0)" fill="#4dd2e8"/>
    <path id="Path_31" data-name="Path 31" d="M205.49,44.439a3.775,3.775,0,0,1,3.136-2.748.339.339,0,0,0,.239-.09.245.245,0,0,0,.149-.149,1.426,1.426,0,0,0-.538-2.031c-.866-.627-2.24,0-2.927.568-1.732,1.434-3.495,3.913-3.405,6.273a9.879,9.879,0,0,0,.209,4.69,2.21,2.21,0,0,0,2.061,1.4c.9.06,2.748.329,3.555-.209s.866-1.583.956-2.479c.09-.986.358-2.838-.478-3.614C207.611,45.305,205.191,46.111,205.49,44.439Z" transform="translate(-192.103)" fill="#4dd2e8"/>
  </g>
</svg>
