<svg id="searching" xmlns="http://www.w3.org/2000/svg" width="24" height="24" viewBox="0 0 24 24">
  <g id="Group_2" data-name="Group 2" transform="translate(0 0)">
    <path id="Path_1" data-name="Path 1" d="M3.019,3.018A10.3,10.3,0,0,1,20.61,10.3a10.228,10.228,0,0,1-2.537,6.771L23.795,22.8a.7.7,0,1,1-1,1l-5.723-5.723A10.3,10.3,0,0,1,0,10.3,10.237,10.237,0,0,1,3.019,3.018Zm1,13.577a8.892,8.892,0,1,0,0-12.582A8.907,8.907,0,0,0,4.014,16.6Z" transform="translate(-0.001 0)" fill="#bdbdbd"/>
  </g>
</svg>
