<svg xmlns="http://www.w3.org/2000/svg" width="24" height="23.357" viewBox="0 0 24 23.357">
  <g id="shopping-cart" transform="translate(0 -6.028)">
    <g id="Group_6" data-name="Group 6" transform="translate(0 6.028)">
      <g id="Group_5" data-name="Group 5" transform="translate(0 0)">
        <path id="Path_2" data-name="Path 2" d="M99.159,350.322a2.506,2.506,0,1,0,2.506,2.506A2.506,2.506,0,0,0,99.159,350.322Zm0,3.9a1.392,1.392,0,1,1,1.392-1.392A1.392,1.392,0,0,1,99.159,354.22Z" transform="translate(-91.503 -331.976)" fill="#757575"/>
        <path id="Path_3" data-name="Path 3" d="M297.69,350.322a2.506,2.506,0,1,0,2.506,2.506A2.506,2.506,0,0,0,297.69,350.322Zm0,3.9a1.392,1.392,0,1,1,1.392-1.392A1.392,1.392,0,0,1,297.69,354.22Z" transform="translate(-279.455 -331.976)" fill="#757575"/>
        <path id="Path_4" data-name="Path 4" d="M23.886,9.759a.7.7,0,0,0-.445-.223L5.317,9.285l-.5-1.531A2.561,2.561,0,0,0,2.422,6.028H.557a.557.557,0,1,0,0,1.114H2.422a1.448,1.448,0,0,1,1.336.974L7.294,18.779l-.278.64a2.673,2.673,0,0,0,.251,2.422A2.589,2.589,0,0,0,9.354,23.01h10.83a.557.557,0,0,0,0-1.114H9.354a1.42,1.42,0,0,1-1.169-.668,1.531,1.531,0,0,1-.139-1.336l.223-.5,11.721-1.225a3.062,3.062,0,0,0,2.645-2.339l1.336-5.6A.473.473,0,0,0,23.886,9.759Zm-2.338,5.818a1.893,1.893,0,0,1-1.7,1.476L8.268,18.25,5.679,10.4l17.066.251Z" transform="translate(0 -6.028)" fill="#757575"/>
      </g>
    </g>
  </g>
</svg>
