<svg xmlns="http://www.w3.org/2000/svg" width="12" height="11.998" viewBox="0 0 12 11.998">
  <path id="star" d="M11.969,5.026a.643.643,0,0,0-.549-.458L7.956,4.24,6.587.9A.628.628,0,0,0,5.414.9L4.044,4.24.58,4.568a.644.644,0,0,0-.549.458.683.683,0,0,0,.186.707l2.618,2.4-.772,3.548a.68.68,0,0,0,.248.687.612.612,0,0,0,.7.032L6,10.532l2.987,1.863a.614.614,0,0,0,.7-.032.68.68,0,0,0,.248-.687L9.164,8.128l2.618-2.395A.684.684,0,0,0,11.969,5.026Zm0,0" transform="translate(0 -0.492)" fill="#ffc107"/>
</svg>
