<svg id="support" xmlns="http://www.w3.org/2000/svg" width="64" height="64" viewBox="0 0 64 64">
  <g id="Group_138" data-name="Group 138" transform="translate(24.423 27.695)">
    <path id="Path_71" data-name="Path 71" d="M199.9,229.356a.791.791,0,0,1-.8.8h-5.161a.81.81,0,0,1-.583-1.4l4.316-3.908a1.888,1.888,0,0,0-2.392-2.915c-.322.233-.59.653-1,.725a.813.813,0,0,1-.892-.536c-.2-.582.3-.93.67-1.269a3.443,3.443,0,0,1,2.348-.9,3.51,3.51,0,0,1,2.6,1.152,3.443,3.443,0,0,1,.9,2.348,3.511,3.511,0,0,1-1.152,2.6l-2.756,2.493H199.1A.8.8,0,0,1,199.9,229.356Z" transform="translate(-193.094 -219.952)" fill="#4dd2e8"/>
    <path id="Path_72" data-name="Path 72" d="M259.658,227.5a.8.8,0,0,1-.816.8H258.7v1.108a.8.8,0,0,1-1.6,0V228.3h-4.564a.8.8,0,0,1-.656-1.3c.186-.231,5.334-6.647,5.394-6.707a1.271,1.271,0,0,1,.175-.154.809.809,0,0,1,1.254.663V226.7h.146A.812.812,0,0,1,259.658,227.5Zm-2.566-4.4-2.9,3.6h2.9Z" transform="translate(-244.645 -220.003)" fill="#4dd2e8"/>
  </g>
  <path id="Path_73" data-name="Path 73" d="M59,21.968C56.721,9.132,44.857,0,32,0S7.279,9.132,5,21.967a5.9,5.9,0,0,0-5,5.8v3.1a.938.938,0,0,0,1.875,0v-3.1a4.027,4.027,0,0,1,4.043-4H7.875V43.224H5.918a4.026,4.026,0,0,1-4.043-4v-3.6a.938.938,0,0,0-1.875,0v3.6A5.9,5.9,0,0,0,5.918,45.1H7.975c.869,3.246,5.846,2.607,5.846-.76V22.655c0-3.361-4.975-4.011-5.846-.76H6.918C9.22,10.136,20.186,1.875,32,1.875s22.78,8.26,25.082,20.021H56.025c-.869-3.246-5.847-2.607-5.847.76V44.34c0,3.361,4.976,4.012,5.847.76H57.07c-1.682,8.909-9.826,14.717-18.675,15a2.976,2.976,0,0,0-2.815-2.007H28.421a2.955,2.955,0,1,0,0,5.911h7.158A2.976,2.976,0,0,0,38.4,61.972c9.915-.292,18.9-6.953,20.585-16.941A5.9,5.9,0,0,0,64,39.224V27.771A5.9,5.9,0,0,0,59,21.968ZM9.75,22.655a1.1,1.1,0,0,1,2.2,0V44.34a1.1,1.1,0,0,1-2.2,0Zm25.829,39.47H28.421a1.081,1.081,0,0,1,0-2.161h7.158A1.081,1.081,0,0,1,35.579,62.125ZM54.25,44.34a1.1,1.1,0,0,1-2.2,0V22.655a1.1,1.1,0,0,1,2.2,0Zm7.875-5.115a4.027,4.027,0,0,1-4.044,4H56.125V23.771h1.956a4.027,4.027,0,0,1,4.044,4Z" fill="#4dd2e8"/>
  <path id="Path_74" data-name="Path 74" d="M151.731,168.123l5.43,2.392a.913.913,0,0,0,1.267-.826v-6.042a14.693,14.693,0,0,0,.785-18.146.9.9,0,0,0-1.466,1.054,12.888,12.888,0,0,1-.893,16.148.9.9,0,0,0-.231.6v5l-4.485-1.976a.9.9,0,0,0-.665-.025,12.979,12.979,0,1,1,3.075-22.888.9.9,0,0,0,1.026-1.486,14.8,14.8,0,1,0-3.842,26.193Z" transform="translate(-115.062 -121.214)" fill="#4dd2e8"/>
</svg>
