<svg xmlns="http://www.w3.org/2000/svg" width="16.365" height="16.349" viewBox="0 0 16.365 16.349">
  <g id="surface1" transform="translate(0 -0.5)">
    <path id="Path_49" data-name="Path 49" d="M16.359,7.732h0A.939.939,0,0,0,16,7.087l-.931-.725.35-1.155a.935.935,0,0,0-.682-1.182l-1.172-.274-.15-1.194a.935.935,0,0,0-1.1-.8l-1.182.227L10.5.951a.945.945,0,0,0-1.21-.36.557.557,0,0,0-.087.05l-1.026.714L7.194.667A.935.935,0,0,0,5.859.951l-.622,1.03L4.055,1.754a.935.935,0,0,0-1.1.8L2.8,3.751,1.562,4.04,1.5,4.059l-.021.009A.936.936,0,0,0,.947,5.206L1.3,6.361l-.971.756-.056.049-.016.017a.947.947,0,0,0-.03,1.255l.76.909L.367,10.466l-.025.056-.007.021A.947.947,0,0,0,.822,11.7l1.089.511-.1,1.2a.935.935,0,0,0,.913,1.015l1.2.024.395,1.137a.935.935,0,0,0,1.247.555l1.109-.467.87.929.046.041.018.013a.961.961,0,0,0,.572.189.932.932,0,0,0,.682-.294l.823-.878,1.109.467a.935.935,0,0,0,1.247-.555l.395-1.137,1.273-.025.06-.007.022,0a.947.947,0,0,0,.762-1l-.1-1.2,1.089-.511a.935.935,0,0,0,.422-1.3l-.583-1.058.761-.909A.939.939,0,0,0,16.359,7.732Zm-1.887,1.2a.567.567,0,0,0-.064.638l.7,1.272-1.315.617a.568.568,0,0,0-.323.56l.123,1.447-1.452.029a.567.567,0,0,0-.523.38l-.476,1.372-1.338-.564a.568.568,0,0,0-.632.134L8.181,15.88l-.993-1.06a.567.567,0,0,0-.413-.178.56.56,0,0,0-.218.044l-1.338.564-.476-1.371a.567.567,0,0,0-.523-.38l-1.452-.029.123-1.447a.568.568,0,0,0-.323-.56l-1.314-.617.7-1.272a.567.567,0,0,0-.064-.638l-.922-1.1L2.1,6.954a.567.567,0,0,0,.2-.611l-.421-1.39,1.414-.33a.568.568,0,0,0,.432-.48L3.9,2.7l1.426.274a.568.568,0,0,0,.59-.263L6.667,1.47l1.191.83a.567.567,0,0,0,.646,0L9.7,1.469l.751,1.243a.567.567,0,0,0,.59.263L12.463,2.7l.181,1.441a.568.568,0,0,0,.432.48l1.414.33-.421,1.39a.568.568,0,0,0,.2.612l1.13.88Zm0,0" transform="translate(0)" fill="#6343a4"/>
    <path id="Path_50" data-name="Path 50" d="M134.141,128.781a4.075,4.075,0,1,0,4.075,4.075A4.08,4.08,0,0,0,134.141,128.781Zm0,7.191a3.116,3.116,0,1,1,3.116-3.115A3.119,3.119,0,0,1,134.141,135.972Zm0,0" transform="translate(-125.909 -124.181)" fill="#6343a4"/>
    <path id="Path_51" data-name="Path 51" d="M196.519,212.434l-1.893,1.893-.514-.514a.48.48,0,0,0-.678.679l.853.853a.48.48,0,0,0,.678,0l2.232-2.232a.48.48,0,1,0-.678-.678Zm0,0" transform="translate(-187.116 -205.024)" fill="#6343a4"/>
  </g>
</svg>
