<svg id="touch" xmlns="http://www.w3.org/2000/svg" width="44.098" height="64" viewBox="0 0 44.098 64">
  <g id="Group_35" data-name="Group 35" transform="translate(14.217 0)">
    <g id="Group_34" data-name="Group 34">
      <path id="Path_26" data-name="Path 26" d="M161.9,6.305a14.94,14.94,0,1,0-22.466,19.481l-.022.036a1.171,1.171,0,0,0,1.607-1.695,12.6,12.6,0,1,1,16,1.135,1.171,1.171,0,1,0,1.324,1.869A14.94,14.94,0,0,0,161.9,6.305Z" transform="translate(-134.769 -0.001)" fill="#4dd2e8"/>
    </g>
  </g>
  <g id="Group_40" data-name="Group 40" transform="translate(0 9.441)">
    <g id="Group_39" data-name="Group 39">
      <g id="Group_38" data-name="Group 38">
        <path id="Path_28" data-name="Path 28" d="M150.173,354.167h0Z" transform="translate(-132.826 -299.607)" fill="#4dd2e8"/>
        <path id="Path_29" data-name="Path 29" d="M88.169,55.643l-.073-.065a5.215,5.215,0,0,0-8.83,3.753v13.31a5.193,5.193,0,0,0-6.546.662l-.065.073q-.153.16-.291.327A5.3,5.3,0,0,0,72,73.3l-.073-.065a5.193,5.193,0,0,0-7.273.065l-.065.073q-.153.16-.291.327a5.3,5.3,0,0,0-.364-.4l-.073-.065a5.193,5.193,0,0,0-7.273.065l-.065.073a5.193,5.193,0,0,0-1.455,3.637V91.333a17.318,17.318,0,1,0,34.636,0v-32A5.2,5.2,0,0,0,88.169,55.643Zm-.822,35.669a15.005,15.005,0,0,1-30.01,0l.007-14.329A2.865,2.865,0,0,1,58.137,75l.051-.051A2.866,2.866,0,0,1,62.2,74.9l.051.051a2.866,2.866,0,0,1,.844,2.029,1.171,1.171,0,0,0,2.342,0A2.865,2.865,0,0,1,66.225,75l.051-.051a2.866,2.866,0,0,1,4.008-.051l.051.051a2.866,2.866,0,0,1,.844,2.029,1.171,1.171,0,0,0,2.342,0A2.866,2.866,0,0,1,74.306,75l.051-.051a2.859,2.859,0,0,1,4.008-.051l.051.051a2.866,2.866,0,0,1,.844,2.029,1.171,1.171,0,1,0,2.342,0V59.308a2.873,2.873,0,0,1,4.851-2.08l.051.051a2.866,2.866,0,0,1,.844,2.029v32Z" transform="translate(-55.067 -54.121)" fill="#4dd2e8"/>
      </g>
    </g>
  </g>
</svg>
