<svg xmlns="http://www.w3.org/2000/svg" width="69.183" height="52.444" viewBox="0 0 69.183 52.444">
  <g id="truck" transform="translate(-8 -80)">
    <path id="Path_1516" data-name="Path 1516" d="M83.348,376a3.348,3.348,0,1,0,3.348,3.348A3.348,3.348,0,0,0,83.348,376Zm0,4.463a1.116,1.116,0,1,1,1.116-1.116A1.116,1.116,0,0,1,83.348,380.463Z" transform="translate(-61.957 -254.714)" fill="#4dd2e8"/>
    <path id="Path_1517" data-name="Path 1517" d="M387.348,376a3.348,3.348,0,1,0,3.348,3.348A3.348,3.348,0,0,0,387.348,376Zm0,4.463a1.116,1.116,0,1,1,1.116-1.116A1.116,1.116,0,0,1,387.348,380.463Z" transform="translate(-323.555 -254.714)" fill="#4dd2e8"/>
    <path id="Path_1518" data-name="Path 1518" d="M77.005,106.176,66.963,90.555a1.116,1.116,0,0,0-.939-.512H52.634V83.905A3.91,3.91,0,0,0,48.728,80H11.905A3.91,3.91,0,0,0,8,83.905v40.728a1.116,1.116,0,0,0,1.116,1.116H13.66a7.81,7.81,0,0,0,15.46,0H56.062a7.81,7.81,0,0,0,15.46,0h4.544a1.116,1.116,0,0,0,1.116-1.116V106.78a1.118,1.118,0,0,0-.177-.6ZM21.39,130.213a5.579,5.579,0,1,1,5.579-5.579A5.579,5.579,0,0,1,21.39,130.213Zm29.012-6.7H29.12a7.81,7.81,0,0,0-15.46,0H10.232V112.36H50.4Zm0-13.39H10.232V83.905a1.675,1.675,0,0,1,1.674-1.674H48.728A1.675,1.675,0,0,1,50.4,83.905ZM67.567,95.622l6.457,10.043H58.213V95.622Zm-3.774,34.591a5.579,5.579,0,1,1,5.579-5.579,5.579,5.579,0,0,1-5.579,5.579Zm11.158-15.622H72.719a1.116,1.116,0,1,1,0-2.232h2.232Zm0-4.463H72.719a3.348,3.348,0,0,0,0,6.7h2.232v6.7H71.522a7.81,7.81,0,0,0-15.46,0H52.634V92.274H65.415l.718,1.116H57.1a1.116,1.116,0,0,0-1.116,1.116V106.78A1.116,1.116,0,0,0,57.1,107.9H74.951Z" fill="#4dd2e8"/>
    <path id="Path_1519" data-name="Path 1519" d="M356.463,296h-3.348a1.116,1.116,0,0,0,0,2.232h3.348a1.116,1.116,0,0,0,0-2.232Z" transform="translate(-296.019 -185.872)" fill="#4dd2e8"/>
    <path id="Path_1520" data-name="Path 1520" d="M209.116,330.232h8.927a1.116,1.116,0,0,0,0-2.232h-8.927a1.116,1.116,0,0,0,0,2.232Z" transform="translate(-172.104 -213.409)" fill="#4dd2e8"/>
    <path id="Path_1521" data-name="Path 1521" d="M252.463,352h-3.348a1.116,1.116,0,0,0,0,2.232h3.348a1.116,1.116,0,0,0,0-2.232Z" transform="translate(-206.525 -234.061)" fill="#4dd2e8"/>
  </g>
</svg>
