<svg xmlns="http://www.w3.org/2000/svg" width="23.002" height="17.25" viewBox="0 0 23.002 17.25">
  <g id="visibility" transform="translate(0 -64.008)">
    <g id="Group_410" data-name="Group 410" transform="translate(8.65 69.782)">
      <g id="Group_409" data-name="Group 409" transform="translate(0 0)">
        <path id="Path_1510" data-name="Path 1510" d="M198.111,192.682a.479.479,0,1,0-.678.678,2.875,2.875,0,1,1-4.066,4.066.479.479,0,0,0-.678.678,3.833,3.833,0,1,0,5.421-5.421Z" transform="translate(-192.55 -192.542)" fill="#bdbdbd"/>
      </g>
    </g>
    <g id="Group_412" data-name="Group 412" transform="translate(7.667 68.799)">
      <g id="Group_411" data-name="Group 411" transform="translate(0 0)">
        <path id="Path_1511" data-name="Path 1511" d="M175.17,170.725a3.8,3.8,0,0,0-4.5,3.767,3.752,3.752,0,0,0,.067.668.48.48,0,0,0,.471.4.425.425,0,0,0,.084-.008.48.48,0,0,0,.388-.555,2.779,2.779,0,0,1-.052-.5A2.841,2.841,0,0,1,175,171.668a.479.479,0,1,0,.167-.943Z" transform="translate(-170.668 -170.659)" fill="#bdbdbd"/>
      </g>
    </g>
    <g id="Group_414" data-name="Group 414" transform="translate(5.994 67.263)">
      <g id="Group_413" data-name="Group 413" transform="translate(0 0)">
        <path id="Path_1512" data-name="Path 1512" d="M150.328,141.522a23.28,23.28,0,0,0-6.277-5.007.479.479,0,1,0-.44.852,22.52,22.52,0,0,1,5.707,4.464c-1.142,1.237-5.638,5.75-10.377,5.75a11.049,11.049,0,0,1-4.819-1.155.479.479,0,0,0-.416.863,11.984,11.984,0,0,0,5.235,1.251c5.9,0,11.166-6.138,11.388-6.4A.479.479,0,0,0,150.328,141.522Z" transform="translate(-133.435 -136.461)" fill="#bdbdbd"/>
      </g>
    </g>
    <g id="Group_416" data-name="Group 416" transform="translate(0 65.924)">
      <g id="Group_415" data-name="Group 415" transform="translate(0 0)">
        <path id="Path_1513" data-name="Path 1513" d="M14.645,107.211a9.9,9.9,0,0,0-3.145-.552c-5.9,0-11.166,6.138-11.388,6.4a.479.479,0,0,0-.027.584,17.791,17.791,0,0,0,4.4,4.168.476.476,0,0,0,.663-.135.478.478,0,0,0-.134-.663A17.525,17.525,0,0,1,1.1,113.394c1.1-1.2,5.629-5.776,10.4-5.776a8.97,8.97,0,0,1,2.839.5.473.473,0,0,0,.607-.3A.478.478,0,0,0,14.645,107.211Z" transform="translate(0 -106.659)" fill="#bdbdbd"/>
      </g>
    </g>
    <g id="Group_418" data-name="Group 418" transform="translate(2.875 64.008)">
      <g id="Group_417" data-name="Group 417" transform="translate(0 0)">
        <path id="Path_1514" data-name="Path 1514" d="M81.106,64.148a.48.48,0,0,0-.678,0L64.136,80.441a.479.479,0,0,0,.678.678L81.106,64.826A.48.48,0,0,0,81.106,64.148Z" transform="translate(-63.996 -64.008)" fill="#bdbdbd"/>
      </g>
    </g>
  </g>
</svg>
